<svg xmlns="http://www.w3.org/2000/svg" xmlns:xlink="http://www.w3.org/1999/xlink" width="500" zoomAndPan="magnify" viewBox="0 0 375 374.999991" height="500" preserveAspectRatio="xMidYMid meet" version="1.2"><defs><clipPath id="3c3af5a428"><path d="M 27.519531 27.519531 L 347.769531 27.519531 L 347.769531 347.769531 L 27.519531 347.769531 Z M 27.519531 27.519531 "/></clipPath><clipPath id="f4a78651aa"><path d="M 137 73 L 274 73 L 274 347.769531 L 137 347.769531 Z M 137 73 "/></clipPath><clipPath id="e5f8bc2e7c"><path d="M 127 63 L 284 63 L 284 347.769531 L 127 347.769531 Z M 127 63 "/></clipPath></defs><g id="a514526387"><g clip-rule="nonzero" clip-path="url(#3c3af5a428)"><path style="fill-rule:nonzero;fill:#4267b2;fill-opacity:1;stroke-width:1;stroke-linecap:butt;stroke-linejoin:miter;stroke:#4267b2;stroke-opacity:1;stroke-miterlimit:10;" d="M 462.699452 234.599377 C 462.699452 238.234715 462.612508 241.870053 462.433186 245.50539 C 462.253865 249.135294 461.987599 252.759764 461.628956 256.3788 C 461.275747 259.997835 460.83016 263.606003 460.297629 267.203303 C 459.759664 270.800603 459.14019 274.381601 458.428337 277.95173 C 457.721919 281.516426 456.923123 285.06482 456.042817 288.591478 C 455.157077 292.118136 454.189827 295.623058 453.130199 299.10081 C 452.076006 302.578562 450.934868 306.034578 449.712221 309.457991 C 448.48414 312.881403 447.179983 316.272211 445.783448 319.630415 C 444.392347 322.994054 442.919737 326.31422 441.365616 329.601783 C 439.811496 332.889345 438.175866 336.13887 436.464159 339.344923 C 434.747019 342.550975 432.959237 345.713556 431.089946 348.832665 C 429.21522 351.951774 427.275286 355.021977 425.253843 358.048708 C 423.2324 361.070005 421.140314 364.042396 418.972153 366.965882 C 416.803992 369.883933 414.570623 372.753078 412.261179 375.56245 C 409.957168 378.371822 407.582515 381.126853 405.137221 383.822111 C 402.69736 386.517369 400.192292 389.147419 397.616582 391.717695 C 395.046306 394.287971 392.416256 396.798474 389.720998 399.238334 C 387.02574 401.683628 384.270708 404.058281 381.461337 406.362292 C 378.651965 408.671737 375.78282 410.905105 372.864768 413.073267 C 369.941283 415.241428 366.968892 417.333513 363.947595 419.354956 C 360.926298 421.370966 357.850661 423.316333 354.731552 425.185625 C 351.612443 427.054917 348.449862 428.848133 345.243809 430.565273 C 342.037757 432.276979 338.788232 433.912609 335.500669 435.46673 C 332.213107 437.02085 328.892941 438.493461 325.534736 439.884561 C 322.171098 441.275662 318.78029 442.585253 315.356877 443.813334 C 311.933465 445.035982 308.482883 446.177119 304.999697 447.231313 C 301.521945 448.285506 298.017023 449.25819 294.490365 450.138496 C 290.963707 451.024236 287.415313 451.823032 283.850617 452.529451 C 280.280487 453.241303 276.699489 453.860778 273.10219 454.393308 C 269.50489 454.931273 265.896722 455.371426 262.277686 455.730069 C 258.658651 456.088713 255.034181 456.354978 251.404277 456.5343 C 247.768939 456.708187 244.139036 456.800565 240.498264 456.800565 C 236.862926 456.800565 233.227589 456.708187 229.597685 456.5343 C 225.962347 456.354978 222.337877 456.088713 218.718842 455.730069 C 215.099806 455.371426 211.491638 454.931273 207.894338 454.393308 C 204.297038 453.860778 200.716041 453.241303 197.151345 452.529451 C 193.586649 451.823032 190.038255 451.024236 186.511597 450.138496 C 182.984939 449.25819 179.480017 448.285506 175.996831 447.231313 C 172.519079 446.177119 169.068497 445.035982 165.645085 443.813334 C 162.221672 442.585253 158.82543 441.275662 155.467226 439.884561 C 152.109021 438.493461 148.783421 437.02085 145.495858 435.46673 C 142.208296 433.912609 138.964205 432.276979 135.758153 430.565273 C 132.546666 428.848133 129.384085 427.054917 126.264976 425.185625 C 123.145867 423.316333 120.075664 421.370966 117.054367 419.354956 C 114.027636 417.333513 111.055245 415.241428 108.137194 413.073267 C 105.213708 410.905105 102.349997 408.671737 99.535191 406.362292 C 96.72582 404.058281 93.976222 401.683628 91.280964 399.238334 C 88.585706 396.798474 85.950222 394.287971 83.379946 391.717695 C 80.80967 389.147419 78.304602 386.517369 75.859307 383.822111 C 73.419447 381.126853 71.044794 378.371822 68.735349 375.56245 C 66.431339 372.753078 64.192536 369.883933 62.029809 366.965882 C 59.861648 364.042396 57.769562 361.070005 55.748119 358.048708 C 53.726676 355.021977 51.781308 351.951774 49.912016 348.832665 C 48.042724 345.713556 46.249509 342.550975 44.537802 339.344923 C 42.820662 336.13887 41.190466 332.889345 39.630912 329.601783 C 38.076791 326.31422 36.604181 322.994054 35.21308 319.630415 C 33.821979 316.272211 32.512388 312.881403 31.289741 309.457991 C 30.061659 306.034578 28.925956 302.578562 27.866328 299.10081 C 26.812135 295.623058 25.844885 292.118136 24.959145 288.591478 C 24.073405 285.06482 23.280043 281.516426 22.56819 277.95173 C 21.861772 274.381601 21.236864 270.800603 20.704333 267.203303 C 20.171802 263.606003 19.726215 259.997835 19.367572 256.3788 C 19.014363 252.759764 18.748097 249.135294 18.568776 245.50539 C 18.389454 241.870053 18.30251 238.234715 18.30251 234.599377 C 18.30251 230.964039 18.389454 227.328702 18.568776 223.698798 C 18.748097 220.06346 19.014363 216.438991 19.367572 212.819955 C 19.726215 209.200919 20.171802 205.592751 20.704333 201.995451 C 21.236864 198.398152 21.861772 194.817154 22.56819 191.252458 C 23.280043 187.682328 24.073405 184.139368 24.959145 180.607276 C 25.844885 177.080618 26.812135 173.58113 27.866328 170.097944 C 28.925956 166.620192 30.061659 163.16961 31.289741 159.740764 C 32.512388 156.317352 33.821979 152.926543 35.21308 149.568339 C 36.604181 146.210135 38.076791 142.884534 39.630912 139.596972 C 41.190466 136.309409 42.820662 133.065319 44.537802 129.853832 C 46.249509 126.647779 48.042724 123.485198 49.912016 120.366089 C 51.781308 117.246981 53.726676 114.176778 55.748119 111.150046 C 57.769562 108.128749 59.861648 105.156358 62.029809 102.238307 C 64.192536 99.314821 66.431339 96.45111 68.735349 93.636304 C 71.044794 90.826933 73.419447 88.071901 75.859307 85.382077 C 78.304602 82.686819 80.80967 80.051335 83.379946 77.481059 C 85.950222 74.910783 88.585706 72.400281 91.280964 69.96042 C 93.976222 67.52056 96.72582 65.145907 99.535191 62.836463 C 102.349997 60.532452 105.213708 58.293649 108.137194 56.125488 C 111.055245 53.962761 114.027636 51.865242 117.054367 49.849232 C 120.075664 47.827789 123.145867 45.882421 126.264976 44.013129 C 129.384085 42.143838 132.546666 40.350622 135.758153 38.638916 C 138.964205 36.921776 142.208296 35.286145 145.495858 33.732025 C 148.783421 32.177904 152.109021 30.705294 155.467226 29.314193 C 158.82543 27.923092 162.221672 26.613501 165.645085 25.390854 C 169.068497 24.162773 172.519079 23.021635 175.996831 21.967442 C 179.480017 20.913248 182.984939 19.940564 186.511597 19.060258 C 190.038255 18.174518 193.586649 17.381156 197.151345 16.669304 C 200.716041 15.957451 204.297038 15.337977 207.894338 14.805446 C 211.491638 14.272915 215.099806 13.827328 218.718842 13.468685 C 222.337877 13.115476 225.967781 12.843776 229.597685 12.669889 C 233.227589 12.490567 236.862926 12.398189 240.498264 12.398189 C 244.139036 12.398189 247.768939 12.490567 251.404277 12.669889 C 255.034181 12.843776 258.658651 13.115476 262.277686 13.468685 C 265.896722 13.827328 269.50489 14.272915 273.10219 14.805446 C 276.699489 15.337977 280.280487 15.957451 283.850617 16.669304 C 287.415313 17.381156 290.963707 18.174518 294.490365 19.060258 C 298.017023 19.940564 301.521945 20.913248 304.999697 21.967442 C 308.482883 23.021635 311.933465 24.162773 315.356877 25.390854 C 318.78029 26.613501 322.171098 27.923092 325.534736 29.314193 C 328.892941 30.705294 332.213107 32.177904 335.500669 33.732025 C 338.788232 35.286145 342.037757 36.921776 345.243809 38.638916 C 348.449862 40.350622 351.612443 42.143838 354.731552 44.013129 C 357.850661 45.882421 360.926298 47.827789 363.947595 49.849232 C 366.968892 51.865242 369.941283 53.962761 372.864768 56.125488 C 375.78282 58.293649 378.651965 60.532452 381.461337 62.836463 C 384.270708 65.145907 387.02574 67.52056 389.720998 69.96042 C 392.416256 72.400281 395.046306 74.910783 397.616582 77.481059 C 400.192292 80.051335 402.69736 82.686819 405.137221 85.382077 C 407.582515 88.071901 409.957168 90.826933 412.261179 93.636304 C 414.570623 96.45111 416.803992 99.314821 418.972153 102.238307 C 421.140314 105.156358 423.2324 108.128749 425.253843 111.150046 C 427.275286 114.176778 429.21522 117.246981 431.089946 120.366089 C 432.959237 123.485198 434.747019 126.647779 436.464159 129.853832 C 438.175866 133.065319 439.811496 136.309409 441.365616 139.596972 C 442.919737 142.884534 444.392347 146.210135 445.783448 149.568339 C 447.179983 152.926543 448.48414 156.317352 449.712221 159.740764 C 450.934868 163.16961 452.076006 166.620192 453.130199 170.097944 C 454.189827 173.58113 455.157077 177.080618 456.042817 180.607276 C 456.923123 184.139368 457.721919 187.682328 458.428337 191.252458 C 459.14019 194.817154 459.759664 198.398152 460.297629 201.995451 C 460.83016 205.592751 461.275747 209.200919 461.628956 212.819955 C 461.987599 216.438991 462.253865 220.06346 462.433186 223.698798 C 462.612508 227.328702 462.699452 230.964039 462.699452 234.599377 Z M 462.699452 234.599377 " transform="matrix(0.718855,0,0,0.718855,14.761115,18.966404)"/></g><g clip-rule="nonzero" clip-path="url(#f4a78651aa)"><path style=" stroke:none;fill-rule:nonzero;fill:#ffffff;fill-opacity:1;" d="M 225.171875 75.035156 C 212.445312 77.335938 208.0625 79.492188 200.730469 83.664062 C 192.894531 88.121094 187.429688 92.792969 183.691406 96.601562 C 171.472656 109.253906 168.738281 121.042969 166.441406 130.171875 C 162.988281 143.617188 163.347656 156.269531 163.347656 156.269531 L 163.347656 166.117188 L 137.683594 166.117188 L 137.683594 210.757812 L 163.347656 210.757812 L 163.347656 345.542969 C 171.257812 346.765625 179.378906 347.410156 187.644531 347.410156 C 199.867188 347.410156 211.800781 346.046875 223.230469 343.457031 L 223.230469 210.757812 L 262.261719 210.757812 L 262.261719 166.117188 L 223.230469 166.117188 L 223.230469 156.628906 C 223.230469 156.628906 223.230469 154.902344 223.230469 154.6875 C 223.230469 154.46875 223.230469 154.183594 223.230469 153.96875 C 223.230469 152.027344 223.300781 149.152344 223.730469 146.636719 C 224.8125 140.09375 227.039062 134.988281 230.777344 130.460938 C 235.089844 125.285156 240.121094 123.054688 245.730469 122.195312 C 259.601562 120.039062 271.175781 124.855469 271.175781 124.855469 L 273.332031 77.914062 C 273.332031 77.914062 264.636719 75.109375 250.257812 74.101562 C 240.121094 73.382812 231.136719 73.957031 225.171875 75.035156 Z M 225.171875 75.035156 "/></g><g clip-rule="nonzero" clip-path="url(#e5f8bc2e7c)"><path style="fill:none;stroke-width:1;stroke-linecap:butt;stroke-linejoin:miter;stroke:#ffffff;stroke-opacity:1;stroke-miterlimit:10;" d="M 292.702583 77.997288 C 274.998651 81.197907 268.901717 84.197468 258.702122 90.000967 C 247.801543 96.201147 240.199395 102.700196 234.999068 107.998334 C 218.001555 125.59902 214.197764 141.998794 211.002579 154.698023 C 206.198934 173.401809 206.698861 191.002495 206.698861 191.002495 L 206.698861 204.701577 L 170.997562 204.701577 L 170.997562 266.801188 L 206.698861 266.801188 L 206.698861 454.300931 C 217.702686 456.001769 228.999946 456.898377 240.498264 456.898377 C 257.501211 456.898377 274.102043 455.001915 290.001891 451.399181 L 290.001891 266.801188 L 344.298295 266.801188 L 344.298295 204.701577 L 290.001891 204.701577 L 290.001891 191.502421 C 290.001891 191.502421 290.001891 189.100599 290.001891 188.80173 C 290.001891 188.497426 290.001891 188.100745 290.001891 187.801876 C 290.001891 185.101184 290.099703 181.101769 290.697442 177.602281 C 292.202656 168.500352 295.300029 161.39813 300.500355 155.100138 C 306.499478 147.900105 313.498454 144.797298 321.30166 143.601821 C 340.59775 140.602259 356.698655 147.302366 356.698655 147.302366 L 359.698216 82.002137 C 359.698216 82.002137 347.60216 78.100534 327.599651 76.698565 C 313.498454 75.698711 301.000282 76.497507 292.702583 77.997288 Z M 292.702583 77.997288 " transform="matrix(0.718855,0,0,0.718855,14.761115,18.966404)"/></g></g></svg>